<mxfile host="app.diagrams.net" modified="2023-04-11T19:38:52.918Z" agent="Mozilla/5.0 (Windows NT 10.0; Win64; x64) AppleWebKit/537.36 (KHTML, like Gecko) Chrome/110.0.0.0 Safari/537.36 OPR/96.0.0.0" version="21.1.6" etag="kz7Qnb-4mcNoezocMse1" type="github">
  <diagram name="Page-1" id="gWAqdqUltTkBmh73Vh9k">
    <mxGraphModel>
      <root>
        <mxCell id="0" />
        <mxCell id="1" parent="0" />
      </root>
    </mxGraphModel>
  </diagram>
</mxfile>
